<?xml version="1.0" encoding="UTF-8" standalone="no"?>
<!-- Created with Inkscape (http://www.inkscape.org/) -->

<svg
   xmlns:dc="http://purl.org/dc/elements/1.1/"
   xmlns:cc="http://creativecommons.org/ns#"
   xmlns:rdf="http://www.w3.org/1999/02/22-rdf-syntax-ns#"
   xmlns:svg="http://www.w3.org/2000/svg"
   xmlns="http://www.w3.org/2000/svg"
   xmlns:sodipodi="http://sodipodi.sourceforge.net/DTD/sodipodi-0.dtd"
   xmlns:inkscape="http://www.inkscape.org/namespaces/inkscape"
   width="300"
   height="300"
   id="svg2"
   version="1.1"
   inkscape:version="0.92.4 (5da689c313, 2019-01-14)"
   sodipodi:docname="image-bigseal.svg">
  <defs
     id="defs4" />
  <sodipodi:namedview
     id="base"
     pagecolor="#ffffff"
     bordercolor="#666666"
     borderopacity="1.0"
     inkscape:pageopacity="0.0"
     inkscape:pageshadow="2"
     inkscape:zoom="2.0000001"
     inkscape:cx="267.63032"
     inkscape:cy="188.20339"
     inkscape:document-units="px"
     inkscape:current-layer="layer1"
     showgrid="false"
     inkscape:window-width="1872"
     inkscape:window-height="1016"
     inkscape:window-x="48"
     inkscape:window-y="27"
     inkscape:window-maximized="1" />
  <metadata
     id="metadata7">
    <rdf:RDF>
      <cc:Work
         rdf:about="">
        <dc:format>image/svg+xml</dc:format>
        <dc:type
           rdf:resource="http://purl.org/dc/dcmitype/StillImage" />
        <dc:title />
      </cc:Work>
    </rdf:RDF>
  </metadata>
  <g
     inkscape:label="Calque 1"
     inkscape:groupmode="layer"
     id="layer1"
     transform="translate(0,-752.36218)">
    <path
       style="fill:#000000;stroke-width:6.1050868"
       d="m 129.63544,785.47272 c -11.51387,-6.14816 -15.07756,-23.11054 -4.85531,-23.11054 17.18117,16.01932 26.91252,38.10865 37.79356,55.16268 18.30751,28.6382 21.98374,55.42157 10.00207,72.86979 -4.73211,6.89109 -13.58489,20.16053 -13.58489,20.16053 6.13704,16.55657 6.36979,26.32158 11.9202,37.00536 C 182.86175,969.41087 200,1019.0323 200,1031.7835 c 0,16.4903 -12.01356,12.9844 -18.96649,-5.535 -10.2077,-27.18836 -17.84104,-46.63502 -23.82457,-59.90568 -5.27827,-11.7065 -1.2599,-12.38422 -11.87695,-38.21677 0,0 -7.75916,14.16864 -10.95699,19.10567 -2.1245,3.27994 -8.19325,5.96353 -13.48619,5.96353 -8.00637,0 -7.41505,-3.57144 3.519,-21.25391 L 137.55032,910.68742 118.77518,884.6495 C 108.44881,870.32861 100,855.74056 100,852.23161 c 0,-13.42367 12.99171,-5.41537 29.25444,18.03295 9.07063,13.07843 17.92232,23.80967 17.92232,23.80967 0,0 4.0386,-5.95921 7.16637,-10.04064 10.84456,-14.15099 10.36331,-20.47216 -4.25188,-55.85177 -7.60416,-17.7728 -6.3131,-33.03532 -20.45581,-42.7091 z"
       id="path27"
       inkscape:connector-curvature="0"
       sodipodi:nodetypes="cccsccscscsssccsscccc" />
  </g>
</svg>
